<svg xmlns="http://www.w3.org/2000/svg" height="512" width="512" style=""><rect id="backgroundrect" width="100%" height="100%" x="0" y="0" fill="none" stroke="none"/><g class="currentLayer" style=""><title>Layer 1</title><path d="m386.4977684020996,202.46540250710297 c2.300781,-6.75 4.226563,-13.632813 5.765625,-20.601563 c0.12890600000000008,-0.5898440000000005 -1.035156,-2.59375 -2.9101559999999997,-5.332031 c-11.429688,-16.695313 -27.695313,-29.496094 -46.515625,-36.929688 l-51.109375,-20.1875 c-24.164063,-9.542968 -51.054688,-9.523437 -75.203125,0.05468800000000004 l-51.019531,20.230468 c-18.800782,7.457032 -35.039063,20.277344 -46.445313,36.976563 c-1.875,2.7460940000000003 -3.042969,4.753906 -2.9101559999999997,5.347656 c1.742187,7.863281 3.9882809999999997,15.613281 6.699219,23.199219 c26.273437,73.371094 89.109374,108.96875 89.109374,108.96875 l84.644532,-0.04687500000000004 s62.714844,-35.625 88.9375,-108.929687 c0.3242180000000002,-0.914063 0.6445310000000003,-1.8320319999999999 0.9570310000000003,-2.75 zm0,0 " fill="#1e3744" id="svg_1" class=""/><path d="m178.1149554020996,142.52790250710297 l-9.675781,0.0078120000000000064 c-3.5039059999999997,0 -6.730469,1.1875 -9.304687,3.179688 c-4.46875,3.4570309999999997 -6.425782,9.269531 -5.414063,14.828124 l3.8125,20.921876 c2.960938,15.503906 20.632813,8.40625 20.632813,8.40625 zm0,0 " fill="#efd0af" id="svg_2" class=""/><path d="m331.0680814020996,142.44196450710297 l9.675781,-0.0078120000000000064 c3.5039059999999997,0 6.734375,1.179687 9.308593,3.167968 c4.472657,3.453125 6.4375,9.261719 5.4296880000000005,14.824219 l-3.789062,20.921875 c-2.9375,15.511719 -20.621094,8.433594 -20.621094,8.433594 zm0,0 " fill="#fae0c1" id="svg_3" class=""/><path d="m284.9665184020996,354.125558507103 l33.0625,-31.09375 c5.726563,-5.3828130000000005 2.9023440000000003,-14.984375 -4.820313,-16.414063 c-8.984374,-1.8007810000000002 -15.453124,-12.21875 -15.460937,-21.382812 l-0.02343700000000002,-40.835938 l-43.527344,0.02734400000000002 l-43.53125,0.02343700000000002 l0.02343700000000002,40.835938 c0.0039070000000000025,9.164062 -6.453125,19.589844 -15.433593,21.398438 c-7.726563,1.4414060000000002 -10.535157,11.046874 -4.808594,16.421874 l33.101562,31.054688 c17.273438,16.203125 44.164063,16.1875 61.417969,-0.03515600000000002 zm0,0 " fill="#fae0c1" id="svg_4" class=""/><path d="m313.2087054020996,306.61774550710294 c-8.988281,-1.8007810000000002 -15.457031,-12.21875 -15.460937,-21.382812 l-0.02343700000000002,-40.832031 l-34.390626,0.01953100000000001 l0.019532,40.8125 c0.0078120000000000064,9.164062 6.476562,19.582031 15.460937,21.382812 c7.726563,1.429688 10.546875,11.03125 4.824219,16.414063 l-33.066406,31.09375 c-4.058594,3.8164059999999997 -8.652344,6.738281 -13.53125,8.757812 c15.863281,6.582032 34.71875,3.660156 47.921875,-8.757812 l33.066406,-31.09375 c5.726563,-5.378906 2.9023440000000003,-14.984375 -4.820313,-16.414063 zm0,0 " fill="#efd0af" id="svg_5" class=""/><path d="m308.1735494020996,55.473214507102966 c-12.589844,-11.625 -30.28125,-21.769531 -53.644531,-22.035156 c-23.363281,0.2929680000000002 -41.042969,10.457031 -53.617187,22.097656 c-16.039063,14.847656 -24.722657,36.890625 -24.710938,59.632812 l0.0039060000000000032,2.7460940000000003 h0.019532 l0.046874000000000034,79.269532 c0.45312600000000014,22.105468 15.71875,37.402343 28.984376,50.539062 c12.207031,12.085938 26.046874,26.363281 49.414062,26.628906 c23.359375,-0.2929680000000002 37.1875,-14.582031 49.378906,-26.6875 c13.25,-13.152344 28.5,-28.464844 28.929688,-50.570312 l-0.04687500000000004,-79.269532 h0.02343700000000002 l-0.0039060000000000032,-2.75 c-0.01171900000000001,-22.738281 -8.71875,-44.769531 -24.777344,-59.601562 zm0,0 " fill="#fae0c1" id="svg_6" class=""/><path d="m332.93136240209964,117.82477650710297 h0.01953100000000001 v-2.746093 c-0.01562500000000001,-22.742188 -8.722656,-44.773438 -24.777344,-59.605469 c-3.097656,-2.859375 -6.5078119999999995,-5.632812 -10.230468,-8.1875 v70.539062 l-0.019532,-53.304687 l0.04296900000000002,132.574219 c-0.42968700000000015,22.105468 -15.679687,37.421875 -28.929687,50.574218 c-8.796876,8.730469 -18.441407,18.597657 -31.902344,23.53125 c5.214844,1.9101569999999999 11,3.078126 17.53125,3.15625 c23.363281,-0.2929680000000002 37.1875,-14.585937 49.378906,-26.6875 c13.25,-13.152343 28.5,-28.46875 28.929688,-50.574218 zm0,0 " fill="#efd0af" id="svg_7" class=""/><path d="m397.5602684020996,296.95758950710297 l-68.472656,-13.035156 c-14.558594,-2.773438 -29.730469,-0.542969 -42.582031,6.828125 c-9.222657,5.285156 -21.722657,8.847656 -27.957032,10.421875 c-2.539062,0.6406250000000007 -5.1875,0.6289060000000003 -7.722656,-0.03125000000000002 c-6.195312,-1.6132810000000002 -18.609375,-5.238281 -27.945312,-10.507813 c-12.960938,-7.3125 -28.015626,-10 -42.613282,-7.109375 c-27.378906,5.421875 -63.140625,12.5 -63.140625,12.5 c-9.394531,1.859375 -12.875,4.125 -15.191406,7.410157 l-61.472656,105.273437 c-6.113281,10.46875 -6.792969,23.246094 -1.828125,34.308594 l24.8125,55.273437 c2.191406,6.285156 8.125,10.5 14.78125,10.496094 l353.046875,-0.203125 c6.707031,-0.0039060000000000032 12.664062,-4.28125 14.8125,-10.636719 l24.15625,-55.4375 c4.761719,-10.925781 4.050781,-23.460937 -1.9101569999999999,-33.78125 l-60.867187,-105.355468 c-2.3398440000000003,-3.351563 -5.894531,-5.652344 -9.90625,-6.414063 zm0,0 " fill="#2a4d5e" id="svg_8" class=""/><path d="m446.08761240209964,497.94587050710294 l24.15625,-55.4375 c4.761719,-10.925781 4.050781,-23.460937 -1.9101569999999999,-33.78125 l-60.867187,-105.355468 c-2.3398440000000003,-3.351563 -5.894531,-5.652344 -9.90625,-6.414063 l-68.472656,-13.035156 c-14.558594,-2.773438 -29.730469,-0.5468750000000003 -42.582031,6.824219 c-5.777344,3.3125 -12.84375,5.949218 -18.847657,7.84375 c-0.0039060000000000032,0 -0.0039060000000000032,0 -0.0039060000000000032,0 c1.808594,0.19140600000000016 86.078125,19.300781 86.078125,19.300781 c4.015625,0.7656250000000007 7.566406,3.066406 9.90625,6.417969 l60.867188,95.351562 c5.964843,10.320312 6.671874,22.855469 1.910156,33.78125 l-24.03125,55.15625 l28.890625,-0.01562500000000001 c6.707031,-0.0039060000000000032 12.664062,-4.28125 14.8125,-10.636719 zm0,0 " fill="#214451" id="svg_9" class=""/><path d="m418.35323740209964,498.969308507103 l-327.117188,0.1835940000000001 l-18.925781,-174.316407 c-0.6132810000000003,-5.644531 3.804687,-10.566406 9.476563,-10.570312 l345.804687,-0.1992190000000002 c5.6757810000000015,-0.0039060000000000032 10.097656,4.917969 9.492187,10.5625 zm0,0 " fill="#ededed" id="svg_10" class=""/><path d="m427.5915184020996,314.06696450710297 l-24.714844,0.01562500000000001 l-19.867187,184.886719 h35.34375 l18.730468,-174.339844 c0.605469,-5.644531 -3.8164059999999997,-10.566406 -9.492187,-10.5625 zm0,0 " fill="#d6d6d6" id="svg_11" class=""/><path d="m433.04073740209964,508.78571450710297 h-356.476563 c-5.222656,0.0039060000000000032 -9.460937,-4.226562 -9.464843,-9.449219 l-0.0039070000000000025,-6.835937 c0,-5.226563 4.230469,-9.460938 9.453125,-9.464844 l356.476563,-0.203125 c5.222656,0 9.457031,4.230469 9.460937,9.453125 l0.0039060000000000032,6.8359380000000005 c0,5.222656 -4.230468,9.660156 -9.449218,9.664062 zm0,0 " fill="#d6d6d6" id="svg_12" class=""/><path d="m442.4860494020996,492.28571450710297 c-0.0039060000000000032,-5.222656 -4.238281,-9.453125 -9.464844,-9.449219 l-25.675781,0.01171900000000001 l0.007813000000000006,25.75 l25.683594,0.18750000000000008 c5.222656,-0.0039060000000000032 9.453124,-4.441406 9.453124,-9.664062 zm0,0 " fill="#bebebe" id="svg_13" class=""/><path d="m277.8962054020996,369.35212050710294 c0,13.050782 -10.578124,23.628906 -23.628906,23.628906 c-13.046875,0 -23.628906,-10.578124 -23.628906,-23.628906 c0,-13.046875 10.582031,-23.628906 23.628906,-23.628906 c13.050782,0 23.628906,10.582031 23.628906,23.628906 zm0,0 " fill="#8c4949" id="svg_14" class=""/><path d="m266.43917440209964,447.78571450710297 c-7.464843,4.46875 -16.78125,4.472656 -24.25,0.01562500000000001 c-12.21875,-7.292969 -19.703125,-20.46875 -19.710937,-34.695313 l-0.01171900000000001,-22.285156 c-0.007813000000000006,-11.847656 9.589844,-21.453125 21.433594,-21.460937 l20.734375,-0.01171900000000001 c11.847656,-0.0078120000000000064 21.453125,9.589844 21.460937,21.433594 l0.01171900000000001,22.289062 c0.0078120000000000064,14.226563 -7.460938,27.410156 -19.667969,34.714844 zm0,0 " fill="#f43b45" id="svg_15" class=""/><path d="m391.9430814020996,183.27790250710297 c0.10937400000000004,-0.46875 0.2148430000000001,-0.941407 0.3203120000000003,-1.414063 v-0.0039060000000000032 c0.02343800000000002,-0.8984380000000003 0.03125000000000002,-1.796875 0.03125000000000002,-2.6992190000000003 c-0.03515600000000002,-62.976562 -75.195312,-166.949219 -138.234375,-167.375 c-63.035156,0.49609400000000015 -138.078125,104.554688 -138.039063,167.535156 c0,0.789063 0.007813000000000006,1.574219 0.02734400000000002,2.359375 c0.04687500000000004,0.14843800000000013 0.08203200000000006,0.265625 0.09765600000000009,0.34375000000000017 c0.09375000000000008,0.410157 0.18750000000000008,0.820313 0.27734400000000015,1.230469 c5.6484380000000005,-20.5625 77.765625,-36.789062 137.714844,-36.902344 c60.128906,0.04687500000000004 132.515625,16.285156 137.804688,36.925782 zm0,0 " fill="#2a4d5e" id="svg_16" class=""/><path d="m254.0602684020996,11.785714507102966 c-5.996094,0.04687500000000004 -12.097656,1.03125 -18.238281,2.828125 c52.152344,15.253906 106.773437,89.074219 117.878906,145.261719 c21.046875,6.335937 35.949219,14.457031 38.242188,23.402344 c0.10937400000000004,-0.46875 0.2148430000000001,-0.9375 0.3203120000000003,-1.414063 c0,0 0,0 0,-0.0039060000000000032 c0.02343800000000002,-0.8945310000000003 0.03125000000000002,-1.796875 0.03125000000000002,-2.695313 c-0.03515600000000002,-62.980468 -75.195312,-166.953125 -138.234375,-167.378906 zm0,0 " fill="#1f3f47" id="svg_17" class=""/><path d="m272.82979940209964,392.03962050710294 c7.242188,-0.0039060000000000032 11.484375,-7.023437 9.789063,-12.945312 c-3.828125,-5.8671880000000005 -10.441407,-9.746094 -17.96875,-9.746094 l-20.765625,0.01171900000000001 c-7.316406,0.0078120000000000064 -13.769532,3.683593 -17.632813,9.285156 c-2.074219,6.042969 2.070313,13.417969 9.582031,13.414063 zm0,0 " fill="#cf3735" id="svg_18" class=""/><path d="m316.25948740209964,402.453683507103 c-0.0039060000000000032,-4.140625 -3.359375,-7.496094 -7.503906,-7.496094 l-15.152344,0.01171900000000001 s-0.007813000000000006,-4.863282 -0.019532,-5.199219 c9.179688,-3.925781 15.703126,-12.460937 17.085938,-22.347656 l2.023438,-11.175781 c0.7382810000000003,-4.074219 -1.9648440000000007,-7.976563 -6.042969,-8.71875 c-4.070313,-0.734376 -7.976563,1.96875 -8.714844,6.042968 c0,0 -2.09375,11.570313 -2.113281,11.6875 c-0.558594,4.214844 -3.078125,7.917969 -6.71875,10.011719 c-1.066406,-1.6757810000000006 -2.3125,-3.25 -3.726563,-4.691406 c0,0 0.02734400000000002,-0.8281250000000003 0.02343800000000002,-1.242188 c-0.0039070000000000025,-8.316406 -3.2460940000000003,-16.128906 -9.128907,-22.007812 c-5.878906,-5.871094 -13.6875,-9.101563 -22.015624,-9.101563 c-8.316407,0.0039060000000000032 -16.128907,3.2460940000000003 -22.003907,9.128906 c-5.878906,5.8828130000000005 -9.113281,13.699219 -9.105469,22.015626 c0,0.4179680000000002 0.02734400000000002,1.257812 0.02734400000000002,1.257812 c-1.394531,1.4375 -2.632812,3.015625 -3.695312,4.695312 c-3.65625,-2.082031 -6.191406,-5.792968 -6.7578130000000005,-10.015624 c-0.01562500000000001,-0.11718800000000004 -2.125,-11.6875 -2.125,-11.6875 c-0.742187,-4.074219 -4.652343,-6.773438 -8.722656,-6.03125 c-4.074219,0.742187 -6.777344,4.648437 -6.03125,8.726562 l2.039063,11.171875 c1.390624,9.886719 7.925781,18.414063 17.109374,22.324219 c-0.011718000000000008,0.33593700000000015 -0.015624000000000006,5.199218 -0.015624000000000006,5.199218 l-15.152344,0.01171900000000001 c-4.144532,0 -7.5,3.363281 -7.496094,7.503907 c0.0039060000000000032,4.140624 3.359375,7.496093 7.503906,7.496093 l15.152344,-0.01171900000000001 s0,3.363282 0.0039060000000000032,3.4960940000000003 c-9.171875,3.929688 -15.6875,12.457032 -17.070312,22.339844 c0,0 -2.023438,11.171875 -2.023438,11.175781 c-0.8281250000000003,4.550781 2.789063,8.863281 7.417969,8.835938 c3.5898440000000003,-0.01562500000000001 6.683594,-2.6523440000000003 7.339844,-6.160157 l2.054687,-11.335937 c0.02343800000000002,-0.11718700000000004 0.03906300000000002,-0.234375 0.05468800000000004,-0.351563 c0.46875,-3.523437 2.3085940000000003,-6.691406 5.027344,-8.859374 c3.703124,10.347656 10.910156,19.328124 20.5625,25.089843 c4.921874,2.9375 10.441406,4.40625 15.957031,4.40625 c5.53125,0 11.058593,-1.476562 15.988281,-4.425781 c9.644531,-5.773438 16.839844,-14.761719 20.535156,-25.113281 c2.71875,2.164062 4.5625,5.332031 5.035156,8.851562 c0.015626,0.11718800000000004 0.03515700000000002,0.234375 0.05468800000000004,0.351563 c0,0 2.066406,11.324218 2.070312,11.335937 c0.6796880000000006,3.738281 4.273438,6.40625 8.039063,6.109375 c4.339844,-0.3398440000000003 7.492187,-4.5390619999999995 6.714844,-8.800781 l-2.039063,-11.175781 c-1.390625,-9.878906 -7.917968,-18.398438 -17.09375,-22.320313 c0,-0.12890600000000008 0,-3.492187 0,-3.492187 l15.152344,-0.01171900000000001 c4.140625,0 7.5,-3.363281 7.496094,-7.503906 zm-42.527344,-20.632813 c-0.300781,0.7968750000000003 -1.070312,1.46875 -1.960938,1.46875 c0,0 -34.964843,0.02343800000000002 -34.964843,0.02343800000000002 c-0.9765629999999993,0 -1.628907,-0.46875 -1.9375,-1.394532 c-0.30859400000000015,-0.941406 -0.06250000000000004,-1.71875 0.7343750000000003,-2.3125 c2.410156,-1.796874 5.285156,-2.746093 8.308594,-2.746093 c0,0 20.734374,-0.01171900000000001 20.738281,-0.01171900000000001 c3.121093,0 6.066406,1.003906 8.523437,2.9023440000000003 c0.007813000000000006,0.0039060000000000032 0.01562500000000001,0.011718000000000008 0.02343800000000002,0.01562500000000001 c0.011718000000000008,0.0078120000000000064 0.01953100000000001,0.01562500000000001 0.03125000000000002,0.02734300000000002 c0.6757810000000006,0.53125 0.7695310000000003,1.3281260000000001 0.503906,2.027344 zm-19.46875,-28.597656 h0.01171900000000001 c4.304687,0 8.351562,1.6757810000000006 11.398437,4.71875 c1.242188,1.242188 2.257813,2.65625 3.027344,4.183594 c-1.328125,-0.1835940000000001 -2.6835940000000003,-0.27734400000000015 -4.050781,-0.27734400000000015 c-0.0039070000000000025,0 -0.007813000000000006,-0.0039060000000000032 -0.01171900000000001,0 l-20.734375,0.01171900000000001 c-1.375,0 -2.7304690000000003,0.09765600000000009 -4.066406,0.28125 c0.7656250000000007,-1.527344 1.78125,-2.941407 3.023437,-4.183594 c3.046875,-3.050781 7.09375,-4.730469 11.402344,-4.734375 zm-24.28125,59.878906 l-0.0078120000000000064,-16.171875 c2.09375,0.8945310000000003 4.402343,1.378907 6.832031,1.378907 h0.0078120000000000064 l9.964844,-0.0039070000000000025 l0.03515600000000002,43.488281 c-0.261719,-0.1367180000000001 0.253907,0.14843800000000013 0,0 c-11.417969,-6.632812 -16.824219,-17.167968 -16.832031,-28.691406 zm31.832031,28.6875 l-0.03515600000000002,-43.492187 l10,-0.007813000000000006 c2.421875,0 4.730469,-0.488281 6.824219,-1.390625 l0.011718000000000008,16.171875 c0.0039070000000000025,11.527344 -6.070312,22.695313 -16.800781,28.71875 zm0,0 " id="svg_19" class="" fill="#1c1033" fill-opacity="1"/><path d="m476.97656247683716,400.6875002384186 l-15.921874,-27.558594 c-2.074219,-3.5898440000000003 -6.660157,-4.816406 -10.246094,-2.742187 c-3.585938,2.070312 -4.816406,6.660156 -2.742188,10.246093 l15.921875,27.558594 c4.75,8.222656 5.3203130000000005,18.328125 1.527344,27.035156 l-17.953125,41.199219 c-0.12890600000000013,-0.140625 -3.5664059999999997,-5.1875 -12.394531,-5.375 h-4.5859380000000005 l16.105469,-149.90625 c0.5156250000000006,-4.804687 -1.039062,-9.621093 -4.269531,-13.214843 c-3.226563,-3.5898440000000003 -7.847657,-5.6484380000000005 -12.683594,-5.6484380000000005 l-160.679687,0.09375000000000014 c6.9921869999999995,-2.0625 16.011718,-5.210938 23.328124,-9.40625 c11.054688,-6.339844 24.351563,-8.460938 37.445313,-5.964844 l48.019531,9.140625 c4.066406,0.773438 7.996094,-1.8945310000000002 8.769532,-5.964843 c0.777343,-4.070313 -1.8945319999999999,-7.996094 -5.964844,-8.769532 l-29.808594,-5.6757810000000015 c19.847656,-21.824219 34.59375,-46.089844 43.910156,-72.296875 c3.148438,-8.859375 7.191406,-19.035156 7.1875,-28.566406 c-0.019531000000000017,-32.027344 -18.0625,-74.859375 -47.09375,-111.777344 c-31.367187,-39.886719 -67.300781,-62.882812 -98.585937,-63.09375 h-0.10937500000000007 c-31.285156,0.2460940000000002 -67.195313,23.285156 -98.515625,63.207031 c-28.988281,36.949219 -46.984375,79.800781 -46.96875,111.835938 c0.011719000000000018,9.390625 4.136719,19.632812 7.25,28.398437 c9.308593,26.179688 24.035156,50.425782 43.859375,72.238282 l-28.261719,5.59375 c-4.0625,0.804687 -6.703125,4.75 -5.898437,8.8125 c0.804687,4.0625 4.753906,6.695312 8.8125,5.902343 l47.441406,-9.394531 c12.574218,-2.488281 25.878906,-0.25781200000000026 37.472656,6.28125 c7.480469,4.222656 16.601562,7.421875 23.574219,9.511719 l-160.984375,0.0898430000000001 c-4.832032,0.003907000000000003 -9.453125,2.066407 -12.679688,5.6640630000000005 c-3.222656,3.597656 -4.7734369999999995,8.414063 -4.253906,13.21875 l16.277344,149.886719 l-4.5859380000000005,0.003906000000000005 c-7.941406,0 -12.386718,5.386719 -12.578125,5.597656 l-18.488281,-41.1875 c-3.9648440000000003,-8.832031 -3.4179690000000003,-19.097656 1.464844,-27.457031 l16.714844,-28.628906 c2.089843,-3.5742190000000003 0.882812,-8.167969 -2.695313,-10.257813 c-3.5742190000000003,-2.089844 -8.167969,-0.882812 -10.257813,2.695313 l-16.714843000000002,28.625 c-7.3203130000000005,12.535156 -8.140625,27.921875 -2.195313,41.164062 l24.691406,55.003907 c1.96875,5.382812 5.800782,9.789062 10.855469,12.476562 c2.722657,1.7695310000000002 5.894531,2.71875 9.226563,2.71875 h356.476562 c3.507813,-0.003906000000000005 6.855469,-1.265625 9.671875,-3.234375 c4.839844,-2.753906 8.5,-7.117187 10.363281,-12.371094 l24.042969,-55.175781 c5.683594,-13.050781 4.828125,-28.203125 -2.2929690000000003,-40.53125 zm-143.632812,-128.285156 s-10.347656,-2.9023440000000003 -25.949219,-0.44531300000000035 l-0.015625000000000017,-19.195312 c1.105469,-1.082031 4.097656,-4.058594 4.097656,-4.058594 c13.359376,-13.261719 29.917969,-29.695313 31.089844,-54.113281 c3.3125,-0.10156300000000007 6.871094,-0.8476560000000005 10.113282,-2.851563 c3.105468,-1.921875 7.109374,-5.78125 8.542968,-13.335937 l2.242188,-12.394532 c14.480468,5.328126 20.894531,10.394532 22.804687,13.578126 c-0.785156,3.285156 -2.582031,10.195312 -5.652343,18.832031 c-9.609376,27.035156 -25.507813,51.910156 -47.273438,73.984375 zm-120.664062,-34.296875 c-12.34375,-12.222657 -26.332032,-26.078125 -26.761719,-45.289063 l-0.023438000000000035,-36.445312 c22.359375,-4.28125 47.578125,-6.761719 70.386719,-6.8046880000000005 c23.144531,0.015625000000000017 48.734375,2.5351559999999997 71.320312,6.8984380000000005 l0.019532,36.269531 c-0.40625,19.210937 -14.378906,33.082031 -26.710938,45.324219 c0,0 -22.746094,24.507812 -44.101562,24.507812 c-20.976563,0 -44.128906,-24.460937 -44.128906,-24.460937 zm-41.769532,-58.425781 c-2.164062,0 -3.5351559999999997,-2.1992190000000003 -3.851562,-3.847657 l-2.648438,-14.53125 c1.449219,-0.394531 5.820313,-1.515625 6.488282,-1.6757810000000006 zm171.707032,-0.10156300000000007 l-0.011719000000000018,-19.828125 c0.4375000000000003,0.10937500000000007 4.800781,1.230469 6.445312,1.6835940000000007 c0,0 -2.5742190000000003,14.203125 -2.578125,14.234375 c-0.39843700000000026,2.214843 -1.496094,3.71875 -3.855468,3.9101559999999997 zm-86.402344,-164.578125 c53.066406,0.410156 119.128906,84.296875 129.367187,144.726562 c-8.992187,-5.320312 -21.675781,-10.066406 -37.988281,-14.191406 c-27.0625,-6.84375 -61.195312,-10.945312 -91.320312,-10.96875 c-30.003907,0.058594000000000035 -64.039063,4.175782 -91.046876,11.011719 c-16.421874,4.15625 -29.183593,8.9375 -38.210937,14.292969 c10.183594,-60.457032 76.140625,-144.398438 129.199219,-144.871094 zm-77.050782,257.234375 c-21.683593000000002,-22.03125 -37.523437,-46.847656 -47.109374,-73.816406 c-3.058594,-8.597657 -4.851563,-15.480469 -5.640626,-18.785157 c2.027344,-3.25 8.679688,-8.414062 23.578126,-13.8125 l2.324218,12.761719 c1.425782,7.488281 5.433594,11.351563 8.546875,13.269531 c3.242188,2 6.800781,2.742188 10.113281,2.835938 c1.203126,24.417969 17.773438,40.832031 31.148438,54.078125 c0,0 2.40625,2.382813 3.195312,3.160156 l0.011719000000000018,19.609375 c-13.144531,-2.472656 -26.167969,0.6992190000000008 -26.167969,0.6992190000000008 zm41.167969,3.5351559999999997 l-0.003906000000000005,-10.710937 c9.527344,6.933594 21.15625,12.335937 36.402344,12.507812 h0.08593700000000007 h0.0898440000000001 c14.761719,-0.1835940000000002 26.132812,-5.269531 35.480469,-11.894531 l0.003906000000000005,10.601563 c-2.5585940000000003,1.070312 -5.054687,2.296874 -7.46875,3.683593 c-8.675781,4.972657 -21.113281,8.410157 -26.0625,9.65625 c-1.304687,0.3281250000000003 -2.691406,0.32421900000000026 -4,-0.015625000000000017 c-4.917969,-1.28125 -17.3125,-4.796875 -26.144531,-9.78125 c-2.722656,-1.539062 -5.523438,-2.886718 -8.382813,-4.046875 zm-138.421875,43.96875 c-0.07812500000000014,-0.7460930000000007 0.234375,-1.269531 0.511719,-1.5820310000000002 c0.27734400000000026,-0.30859400000000026 0.7656250000000011,-0.6757810000000009 1.519531,-0.6757810000000009 l345.804688,-0.1992190000000003 c0.7500000000000006,0 1.238281,0.36718800000000035 1.515625,0.6757810000000009 c0.277343,0.30859400000000026 0.5937500000000006,0.8359380000000005 0.511719,1.5820310000000002 l-16.28125,151.519532 l-317.128907,0.1835940000000002 zm353.273438,177.058594 s-356.476563,0.203125 -356.480469,0.203125 c-1.070313,0 -1.953125,-0.8867190000000008 -1.953125,-1.953125 c0,0 -0.003906000000000005,-6.832031 -0.003906000000000005,-6.835937 c0,-1.035157 0.8750000000000006,-1.9570319999999999 1.953125,-1.9570319999999999 c0,0 356.476562,-0.203125 356.480469,-0.203125 c1.070312,0 1.953124,0.8867190000000008 1.953124,1.953125 l0.003907000000000003,6.8359380000000005 c0,1.078125 -0.8750000000000006,1.9570310000000002 -1.953125,1.9570310000000002 zm0,0 " id="svg_20" class="" fill="#1c1033" fill-opacity="1"/><path fill="#919191" fill-opacity="1" stroke="none" stroke-opacity="1" stroke-width="1" stroke-dasharray="none" stroke-linejoin="miter" stroke-linecap="butt" stroke-dashoffset="" fill-rule="nonzero" opacity="1" marker-start="" marker-mid="" marker-end="" id="svg_21" d="M388.1428604217209,191.0571466951955 " style="color: rgb(0, 103, 206);" class=""/><path fill="#1c1033" fill-opacity="1" stroke="#1c1033" stroke-opacity="1" stroke-width="10" stroke-dasharray="none" stroke-linejoin="miter" stroke-linecap="butt" stroke-dashoffset="" fill-rule="nonzero" opacity="1" marker-start="" marker-mid="" marker-end="" d="M59.57142625475407,377.62857844391664 L74.5714265102026,353.34286374461914 " id="svg_22" class=""/><path fill="#1c1033" fill-opacity="1" stroke="#1c1033" stroke-opacity="1" stroke-width="10" stroke-dasharray="none" stroke-linejoin="miter" stroke-linecap="butt" stroke-dashoffset="" fill-rule="nonzero" opacity="1" marker-start="" marker-mid="" marker-end="" d="M79.57142659535205,339.05714921562054 L48.85714035800518,388.3428643406656 " id="svg_23" class=""/><path fill="#1c1033" fill-opacity="1" stroke="#1c1033" stroke-opacity="1" stroke-width="10" stroke-dasharray="none" stroke-linejoin="miter" stroke-linecap="butt" stroke-dashoffset="" fill-rule="nonzero" opacity="1" marker-start="" marker-mid="" marker-end="" d="M73.14285505730274,361.2000067355683 L53.85714044315469,386.9142928877657 " id="svg_24" class=""/><path fill="#1c1033" fill-opacity="1" stroke="#1c1033" stroke-opacity="1" stroke-width="10" stroke-dasharray="none" stroke-linejoin="miter" stroke-linecap="butt" stroke-dashoffset="" fill-rule="nonzero" opacity="1" marker-start="" marker-mid="" marker-end="" d="M453.8571472551142,379.7714356232664 L436.71428982031586,356.20000665041886 " id="svg_26" class=""/><path fill="#1c1033" fill-opacity="1" stroke="#1c1033" stroke-opacity="1" stroke-width="10" stroke-dasharray="none" stroke-linejoin="miter" stroke-linecap="butt" stroke-dashoffset="" fill-rule="nonzero" opacity="1" marker-start="" marker-mid="" marker-end="" d="M456.000004434464,374.77143553811703 L438.8571469996657,346.91429220656977 " id="svg_28" class=""/><path fill="none" fill-opacity="1" stroke="#1c1033" stroke-opacity="1" stroke-width="10" stroke-dasharray="none" stroke-linejoin="miter" stroke-linecap="butt" stroke-dashoffset="" fill-rule="nonzero" opacity="1" marker-start="" marker-mid="" marker-end="" d="M381.0000031572216,288.3428626376757 L403.1428606771693,310.48572015762346 " id="svg_25" class=""/><path fill="none" fill-opacity="1" stroke="#1c1033" stroke-opacity="1" stroke-width="10" stroke-dasharray="none" stroke-linejoin="miter" stroke-linecap="butt" stroke-dashoffset="" fill-rule="nonzero" opacity="1" marker-start="" marker-mid="" marker-end="" d="M408.14286076231883,307.62857725182374 L381.0000031572216,286.91429118477583 " id="svg_29" class=""/><path fill="none" fill-opacity="1" stroke="#1c1033" stroke-opacity="1" stroke-width="10" stroke-dasharray="none" stroke-linejoin="miter" stroke-linecap="butt" stroke-dashoffset="" fill-rule="nonzero" opacity="1" marker-start="" marker-mid="" marker-end="" d="M393.85714623332035,303.34286289312416 L378.1428602514219,289.0571483641256 " id="svg_31" class=""/><path fill="none" fill-opacity="1" stroke="#1c1033" stroke-opacity="1" stroke-width="10" stroke-dasharray="none" stroke-linejoin="miter" stroke-linecap="butt" stroke-dashoffset="" fill-rule="nonzero" opacity="1" marker-start="" marker-mid="" marker-end="" d="M99.57142693595003,309.0571487047236 L134.57142753199653,286.2000054583259 " id="svg_27" class=""/><path fill="none" fill-opacity="1" stroke="#1c1033" stroke-opacity="1" stroke-width="10" stroke-dasharray="none" stroke-linejoin="miter" stroke-linecap="butt" stroke-dashoffset="" fill-rule="nonzero" opacity="1" marker-start="" marker-mid="" marker-end="" d="M113.1428557384987,304.771434346024 L139.57142761714599,287.62857691122576 " id="svg_32" class=""/></g></svg>